<?xml version="1.0" encoding="UTF-8"?>
<svg id="Layer_1" data-name="Layer 1" xmlns="http://www.w3.org/2000/svg" viewBox="0 0 360 2831">
  <defs>
    <style>
      .cls-1 {
        fill: #fff;
      }

      .cls-1, .cls-2 {
        font-family: ArialMT, Arial;
        font-size: 9px;
      }

      .cls-3 {
        fill: #d8dae0;
      }

      .cls-4 {
        fill: #06f;
      }
    </style>
  </defs>
  <path class="cls-3" d="m43.62,9.25h45c4.14,0,7.5,3.36,7.5,7.5v4.5c0,4.14-3.36,7.5-7.5,7.5h-51c-.83,0-1.5-.67-1.5-1.5v-10.5c0-4.14,3.36-7.5,7.5-7.5"/>
  <text class="cls-2" transform="translate(43.62 22)"><tspan x="0" y="0">Hola Albert</tspan></text>
  <path class="cls-3" d="m37.62,34.75h93.75c4.14,0,7.5,3.36,7.5,7.5v4.5c0,4.14-3.36,7.5-7.5,7.5H43.62c-4.14,0-7.5-3.36-7.5-7.5v-10.5c0-.83.67-1.5,1.5-1.5"/>
  <text class="cls-2" transform="translate(43.62 47.5)"><tspan x="0" y="0">¿cómo se encuentra?</tspan></text>
  <path class="cls-4" d="m140.38,60.25h158.25c4.14,0,7.5,3.36,7.5,7.5v10.5c0,.83-.67,1.5-1.5,1.5h-164.25c-4.14,0-7.5-3.36-7.5-7.5v-4.5c0-4.14,3.36-7.5,7.5-7.5"/>
  <text class="cls-1" transform="translate(140.38 73)"><tspan x="0" y="0">Muy bien ¿y usted Sr. Benoit a estado?</tspan></text>
  <path class="cls-3" d="m43.62,85.75h216c4.14,0,7.5,3.36,7.5,7.5v16.5c0,4.14-3.36,7.5-7.5,7.5H37.62c-.83,0-1.5-.67-1.5-1.5v-22.5c0-4.14,3.36-7.5,7.5-7.5"/>
  <text class="cls-2" transform="translate(43.62 98.5)"><tspan x="0" y="0">No muy bien, ayer me llego una citación del</tspan></text>
  <text class="cls-2" transform="translate(43.62 110.5)"><tspan x="0" y="0">departamento de Niños y Familia.</tspan></text>
  <path class="cls-4" d="m82.62,123.25h216c4.14,0,7.5,3.36,7.5,7.5v34.5c0,.83-.67,1.5-1.5,1.5H82.62c-4.14,0-7.5-3.36-7.5-7.5v-28.5c0-4.14,3.36-7.5,7.5-7.5"/>
  <text class="cls-1" transform="translate(82.62 136)"><tspan x="0" y="0">Si, como ellos saben que estoy dándole terapia y de</tspan></text>
  <text class="cls-1" transform="translate(82.62 148)"><tspan x="0" y="0">alguna manera representándolo también me</tspan></text>
  <text class="cls-1" transform="translate(82.62 159.99)"><tspan x="0" y="0">mandaron la citación a mí también.</tspan></text>
  <path class="cls-4" d="m82.62,172.75h222c.83,0,1.5.67,1.5,1.5v64.5c0,.83-.67,1.5-1.5,1.5H82.62c-4.14,0-7.5-3.36-7.5-7.5v-52.5c0-4.14,3.36-7.5,7.5-7.5"/>
  <text class="cls-1" transform="translate(82.62 185.5)"><tspan x="0" y="0">La mentó mucho la situación que está atravesando,</tspan></text>
  <text class="cls-1" transform="translate(82.62 197.5)"><tspan x="0" y="0">inmediatamente me llego se la reenvié a mi hija Sara,</tspan></text>
  <text class="cls-1" transform="translate(82.62 209.49)"><tspan x="0" y="0">ella es también psicóloga y tiene mucha experiencia</tspan></text>
  <text class="cls-1" transform="translate(82.62 221.49)"><tspan x="0" y="0">trabajando casos de problemas familiares en el</tspan></text>
  <text class="cls-1" transform="translate(82.62 233.49)"><tspan x="0" y="0">estado.</tspan></text>
  <path class="cls-3" d="m43.62,246.25h216c4.14,0,7.5,3.36,7.5,7.5v28.5c0,4.14-3.36,7.5-7.5,7.5H37.62c-.83,0-1.5-.67-1.5-1.5v-34.5c0-4.14,3.36-7.5,7.5-7.5"/>
  <text class="cls-2" transform="translate(43.62 259)"><tspan x="0" y="0">Usted cree que es buena idea involucrar a más</tspan></text>
  <text class="cls-2" transform="translate(43.62 271)"><tspan x="0" y="0">personas, quiero que esto se maneje lo más privado</tspan></text>
  <text class="cls-2" transform="translate(43.62 282.99)"><tspan x="0" y="0">posible.</tspan></text>
  <path class="cls-4" d="m82.62,295.75h216c4.14,0,7.5,3.36,7.5,7.5v22.5c0,.83-.67,1.5-1.5,1.5H82.62c-4.14,0-7.5-3.36-7.5-7.5v-16.5c0-4.14,3.36-7.5,7.5-7.5"/>
  <text class="cls-1" transform="translate(82.62 308.5)"><tspan x="0" y="0">Si, puede confiar en que ella no va a divulgar nada es</tspan></text>
  <text class="cls-1" transform="translate(82.62 320.5)"><tspan x="0" y="0">mi hija y tiene ética profesional.</tspan></text>
  <path class="cls-3" d="m43.62,333.25h80.25c4.14,0,7.5,3.36,7.5,7.5v4.5c0,4.14-3.36,7.5-7.5,7.5H37.62c-.83,0-1.5-.67-1.5-1.5v-10.5c0-4.14,3.36-7.5,7.5-7.5"/>
  <text class="cls-2" transform="translate(43.62 346)"><tspan x="0" y="0">Ok, confió en usted.</tspan></text>
  <path class="cls-3" d="m37.62,358.75h222c4.14,0,7.5,3.36,7.5,7.5v136.5c0,4.14-3.36,7.5-7.5,7.5H37.62c-.83,0-1.5-.67-1.5-1.5v-148.5c0-.83.67-1.5,1.5-1.5"/>
  <text class="cls-2" transform="translate(43.62 371.5)"><tspan x="0" y="0">No sé porque está pasando todo esto ahora, es como</tspan></text>
  <text class="cls-2" transform="translate(43.62 383.5)"><tspan x="0" y="0">una pesadilla y cada vez se va poniendo peor, no sé</tspan></text>
  <text class="cls-2" transform="translate(43.62 395.49)"><tspan x="0" y="0">si es una lección que me está dando la vida, no sé si</tspan></text>
  <text class="cls-2" transform="translate(43.62 407.49)"><tspan x="0" y="0">estoy pagando mis malas decisiones. Pero ya no</tspan></text>
  <text class="cls-2" transform="translate(43.62 419.49)"><tspan x="0" y="0">siento muchas ganas de seguir adelante. Quiero</tspan></text>
  <text class="cls-2" transform="translate(43.62 431.49)"><tspan x="0" y="0">descansar, algunas veces es mi esposa que me pone</tspan></text>
  <text class="cls-2" transform="translate(43.62 443.48)"><tspan x="0" y="0">depresivo, algunas veces es mi hermano y ahora</tspan></text>
  <text class="cls-2" transform="translate(43.62 455.48)"><tspan x="0" y="0">esto. Lo único bueno que tengo y me da esperanzas</tspan></text>
  <text class="cls-2" transform="translate(43.62 467.48)"><tspan x="0" y="0">de vivir son mis hijos, pero ellos tienen que hacer su</tspan></text>
  <text class="cls-2" transform="translate(43.62 479.47)"><tspan x="0" y="0">vida y no quiero que se vallan a sentir tristes, ellos</tspan></text>
  <text class="cls-2" transform="translate(43.62 491.47)"><tspan x="0" y="0">han tenido que vivir muchos momentos tristes por mi</tspan></text>
  <text class="cls-2" transform="translate(43.62 503.47)"><tspan x="0" y="0">culpa.</tspan></text>
  <path class="cls-4" d="m82.62,516.25h216c4.14,0,7.5,3.36,7.5,7.5v118.5c0,.83-.67,1.5-1.5,1.5H82.62c-4.14,0-7.5-3.36-7.5-7.5v-112.5c0-4.14,3.36-7.5,7.5-7.5"/>
  <text class="cls-1" transform="translate(82.62 529)"><tspan x="0" y="0">De verdad no sabía que todo tomara este giro, de</tspan></text>
  <text class="cls-1" transform="translate(82.62 541)"><tspan x="0" y="0">verdad que es una situación que no me explico cómo</tspan></text>
  <text class="cls-1" transform="translate(82.62 552.99)"><tspan x="0" y="0">le pudo pasar esto. Ya me informaron que</tspan></text>
  <text class="cls-1" transform="translate(82.62 564.99)"><tspan x="0" y="0">investigaron y tienen 3 registros de la policía de su</tspan></text>
  <text class="cls-1" transform="translate(82.62 576.99)"><tspan x="0" y="0">país. Es bueno que se vaya preparando porque le</tspan></text>
  <text class="cls-1" transform="translate(82.62 588.99)"><tspan x="0" y="0">asignaron una oficial que trata siempre de encarcelar</tspan></text>
  <text class="cls-1" transform="translate(82.62 600.98)"><tspan x="0" y="0">a los hombres. Ser hombre en este tiempo es bien</tspan></text>
  <text class="cls-1" transform="translate(82.62 612.98)"><tspan x="0" y="0">difícil, porque se nos acusa de todos los problemas</tspan></text>
  <text class="cls-1" transform="translate(82.62 624.98)"><tspan x="0" y="0">del pasado cómo si hubiéramos sido nosotros los</tspan></text>
  <text class="cls-1" transform="translate(82.62 636.97)"><tspan x="0" y="0">culpables.</tspan></text>
  <path class="cls-4" d="m82.62,649.75h222c.83,0,1.5.67,1.5,1.5v40.5c0,.83-.67,1.5-1.5,1.5H82.62c-4.14,0-7.5-3.36-7.5-7.5v-28.5c0-4.14,3.36-7.5,7.5-7.5"/>
  <text class="cls-1" transform="translate(82.62 662.5)"><tspan x="0" y="0">Sara, mi hija me dice que es casi seguro que lo dejen</tspan></text>
  <text class="cls-1" transform="translate(82.62 674.5)"><tspan x="0" y="0">unos años en la cárcel, por las pruebas que tienen en</tspan></text>
  <text class="cls-1" transform="translate(82.62 686.49)"><tspan x="0" y="0">su contra. Lo siento mucho.</tspan></text>
  <path class="cls-3" d="m43.62,699.25h216c4.14,0,7.5,3.36,7.5,7.5v76.5c0,4.14-3.36,7.5-7.5,7.5H37.62c-.83,0-1.5-.67-1.5-1.5v-82.5c0-4.14,3.36-7.5,7.5-7.5"/>
  <text class="cls-2" transform="translate(43.62 712)"><tspan x="0" y="0">No sé si aguante un mes más en esta situación. Ya</tspan></text>
  <text class="cls-2" transform="translate(43.62 724)"><tspan x="0" y="0">perdí mi vida, no tendré trabajo, mi reputación</tspan></text>
  <text class="cls-2" transform="translate(43.62 735.99)"><tspan x="0" y="0">quedará destruida. Ya solo quiero descansar para</tspan></text>
  <text class="cls-2" transform="translate(43.62 747.99)"><tspan x="0" y="0">siempre, sé que para mis hijos será difícil los</tspan></text>
  <text class="cls-2" transform="translate(43.62 759.99)"><tspan x="0" y="0">primeros días, pero ellos se acostumbraran a que ya</tspan></text>
  <text class="cls-2" transform="translate(43.62 771.99)"><tspan x="0" y="0">no este con ellos, sé que ellos van a poder salir</tspan></text>
  <text class="cls-2" transform="translate(43.62 783.98)"><tspan x="0" y="0">adelante.</tspan></text>
  <path class="cls-4" d="m82.62,796.75h216c4.14,0,7.5,3.36,7.5,7.5v70.5c0,.83-.67,1.5-1.5,1.5H82.62c-4.14,0-7.5-3.36-7.5-7.5v-64.5c0-4.14,3.36-7.5,7.5-7.5"/>
  <text class="cls-1" transform="translate(82.62 809.5)"><tspan x="0" y="0">entiendo que te sientes abrumado y desafortunado.</tspan></text>
  <text class="cls-1" transform="translate(82.62 821.5)"><tspan x="0" y="0">Pero recuerda que las palabras tienen poder y la</tspan></text>
  <text class="cls-1" transform="translate(82.62 833.49)"><tspan x="0" y="0">forma en que hablas sobre ti mismo puede afectar</tspan></text>
  <text class="cls-1" transform="translate(82.62 845.49)"><tspan x="0" y="0">cómo te sientes. En lugar de decir que perdiste tu</tspan></text>
  <text class="cls-1" transform="translate(82.62 857.49)"><tspan x="0" y="0">vida, podrías decir que estás enfrentando desafíos y</tspan></text>
  <text class="cls-1" transform="translate(82.62 869.49)"><tspan x="0" y="0">que estás trabajando para superarlos.</tspan></text>
  <path class="cls-3" d="m43.62,882.25h99c4.14,0,7.5,3.36,7.5,7.5v4.5c0,4.14-3.36,7.5-7.5,7.5H37.62c-.83,0-1.5-.67-1.5-1.5v-10.5c0-4.14,3.36-7.5,7.5-7.5"/>
  <text class="cls-2" transform="translate(43.62 895)"><tspan x="0" y="0">No veo la salida de esto.</tspan></text>
  <path class="cls-4" d="m82.62,907.75h216c4.14,0,7.5,3.36,7.5,7.5v34.5c0,.83-.67,1.5-1.5,1.5H82.62c-4.14,0-7.5-3.36-7.5-7.5v-28.5c0-4.14,3.36-7.5,7.5-7.5"/>
  <text class="cls-1" transform="translate(82.62 920.5)"><tspan x="0" y="0">Sara me dice que la situación es difícil de resolver</tspan></text>
  <text class="cls-1" transform="translate(82.62 932.5)"><tspan x="0" y="0">porque ahora mismo tienen un cuchillo en el cuello</tspan></text>
  <text class="cls-1" transform="translate(82.62 944.49)"><tspan x="0" y="0">que te puede salvar o terminarte de hundir.</tspan></text>
  <path class="cls-3" d="m43.62,957.25h80.25c4.14,0,7.5,3.36,7.5,7.5v4.5c0,4.14-3.36,7.5-7.5,7.5H37.62c-.83,0-1.5-.67-1.5-1.5v-10.5c0-4.14,3.36-7.5,7.5-7.5"/>
  <text class="cls-2" transform="translate(43.62 970)"><tspan x="0" y="0">¿Qué puedo hacer?</tspan></text>
  <path class="cls-4" d="m82.62,982.75h216c4.14,0,7.5,3.36,7.5,7.5v22.5c0,.83-.67,1.5-1.5,1.5H82.62c-4.14,0-7.5-3.36-7.5-7.5v-16.5c0-4.14,3.36-7.5,7.5-7.5"/>
  <text class="cls-1" transform="translate(82.62 995.5)"><tspan x="0" y="0">Sara me dice que hable con su hija, pero es que si</tspan></text>
  <text class="cls-1" transform="translate(82.62 1007.5)"><tspan x="0" y="0">ella falla con la oficial eso lo terminará de hundir.</tspan></text>
  <path class="cls-4" d="m82.62,1020.25h222c.83,0,1.5.67,1.5,1.5v52.5c0,.83-.67,1.5-1.5,1.5H82.62c-4.14,0-7.5-3.36-7.5-7.5v-40.5c0-4.14,3.36-7.5,7.5-7.5"/>
  <text class="cls-1" transform="translate(82.62 1033)"><tspan x="0" y="0">Antes de que pasara todo esto le dije que hablara con</tspan></text>
  <text class="cls-1" transform="translate(82.62 1045)"><tspan x="0" y="0">ella que tratara de acercarse más, le dije muchas</tspan></text>
  <text class="cls-1" transform="translate(82.62 1056.99)"><tspan x="0" y="0">cosas que podía hacer para que mejoraran su</tspan></text>
  <text class="cls-1" transform="translate(82.62 1068.99)"><tspan x="0" y="0">relación. ¿Porque no lo hizo?</tspan></text>
  <path class="cls-3" d="m43.62,1081.75h216c4.14,0,7.5,3.36,7.5,7.5v40.5c0,4.14-3.36,7.5-7.5,7.5H37.62c-.83,0-1.5-.67-1.5-1.5v-46.5c0-4.14,3.36-7.5,7.5-7.5"/>
  <text class="cls-2" transform="translate(43.62 1094.5)"><tspan x="0" y="0">Si lo hice, yo nunca dormía con ella y después que</tspan></text>
  <text class="cls-2" transform="translate(43.62 1106.5)"><tspan x="0" y="0">usted me dijo lo comencé a hacer. Pero usted me dijo</tspan></text>
  <text class="cls-2" transform="translate(43.62 1118.49)"><tspan x="0" y="0">que viera su reacción y creo que no le gusta. No</tspan></text>
  <text class="cls-2" transform="translate(43.62 1130.49)"><tspan x="0" y="0">quiero molestarla</tspan></text>
  <path class="cls-4" d="m212.38,1143.25h86.25c4.14,0,7.5,3.36,7.5,7.5v10.5c0,.83-.67,1.5-1.5,1.5h-92.25c-4.14,0-7.5-3.36-7.5-7.5v-4.5c0-4.14,3.36-7.5,7.5-7.5"/>
  <text class="cls-1" transform="translate(212.38 1156)"><tspan x="0" y="0">¿Pero que ella hace?</tspan></text>
  <path class="cls-3" d="m43.62,1168.75h216c4.14,0,7.5,3.36,7.5,7.5v40.5c0,4.14-3.36,7.5-7.5,7.5H37.62c-.83,0-1.5-.67-1.5-1.5v-46.5c0-4.14,3.36-7.5,7.5-7.5"/>
  <text class="cls-2" transform="translate(43.62 1181.5)"><tspan x="0" y="0">Si la abrazo cuando estamos durmiendo o me acerco</tspan></text>
  <text class="cls-2" transform="translate(43.62 1193.5)"><tspan x="0" y="0">mucho algunas veces se aleja o me queta los brazos</tspan></text>
  <text class="cls-2" transform="translate(43.62 1205.49)"><tspan x="0" y="0">de una forma que se entiende que quiere que para,</tspan></text>
  <text class="cls-2" transform="translate(43.62 1217.49)"><tspan x="0" y="0">se siente muy extraño.</tspan></text>
  <path class="cls-4" d="m82.62,1230.25h216c4.14,0,7.5,3.36,7.5,7.5v94.5c0,.83-.67,1.5-1.5,1.5H82.62c-4.14,0-7.5-3.36-7.5-7.5v-88.5c0-4.14,3.36-7.5,7.5-7.5"/>
  <text class="cls-1" transform="translate(82.62 1243)"><tspan x="0" y="0">Bueno, yo se lo dije que ella no le está diciendo todo.</tspan></text>
  <text class="cls-1" transform="translate(82.62 1255)"><tspan x="0" y="0">Yo tengo 30 años siendo Psicólogo, tengo 2 hijas ya</tspan></text>
  <text class="cls-1" transform="translate(82.62 1266.99)"><tspan x="0" y="0">adultas y nunca he visto eso reacción al menos que</tspan></text>
  <text class="cls-1" transform="translate(82.62 1278.99)"><tspan x="0" y="0">allá pasado algo en el pasado. Y se lo digo si una</tspan></text>
  <text class="cls-1" transform="translate(82.62 1290.99)"><tspan x="0" y="0">oficial del Departamento de Niños y Familia se da</tspan></text>
  <text class="cls-1" transform="translate(82.62 1302.99)"><tspan x="0" y="0">cuenta de que hay algo que no funciona bien en su</tspan></text>
  <text class="cls-1" transform="translate(82.62 1314.98)"><tspan x="0" y="0">relación con su hija, téngalo por seguro que le van a</tspan></text>
  <text class="cls-1" transform="translate(82.62 1326.98)"><tspan x="0" y="0">quitar su custodia.</tspan></text>
  <path class="cls-4" d="m82.62,1339.75h222c.83,0,1.5.67,1.5,1.5v28.5c0,.83-.67,1.5-1.5,1.5H82.62c-4.14,0-7.5-3.36-7.5-7.5v-16.5c0-4.14,3.36-7.5,7.5-7.5"/>
  <text class="cls-1" transform="translate(82.62 1352.5)"><tspan x="0" y="0">¿Que usted entiende que ocurrió en su pasado que</tspan></text>
  <text class="cls-1" transform="translate(82.62 1364.5)"><tspan x="0" y="0">ella se comporta de esa manera?</tspan></text>
  <path class="cls-3" d="m43.62,1377.25h216c4.14,0,7.5,3.36,7.5,7.5v52.5c0,4.14-3.36,7.5-7.5,7.5H37.62c-.83,0-1.5-.67-1.5-1.5v-58.5c0-4.14,3.36-7.5,7.5-7.5"/>
  <text class="cls-2" transform="translate(43.62 1390)"><tspan x="0" y="0">Cuando ella era más pequeña yo no quería que se</tspan></text>
  <text class="cls-2" transform="translate(43.62 1402)"><tspan x="0" y="0">acostumbrara a que la estuvieran abrazando así que</tspan></text>
  <text class="cls-2" transform="translate(43.62 1413.99)"><tspan x="0" y="0">yo deje de hacerlo, para cuando alguien la abrazara</tspan></text>
  <text class="cls-2" transform="translate(43.62 1425.99)"><tspan x="0" y="0">ella se lo encontrara extraño. Claro la idea no era que</tspan></text>
  <text class="cls-2" transform="translate(43.62 1437.99)"><tspan x="0" y="0">ella me incluyera en ese grupo.</tspan></text>
  <path class="cls-4" d="m82.62,1450.75h216c4.14,0,7.5,3.36,7.5,7.5v58.5c0,.83-.67,1.5-1.5,1.5H82.62c-4.14,0-7.5-3.36-7.5-7.5v-52.5c0-4.14,3.36-7.5,7.5-7.5"/>
  <text class="cls-1" transform="translate(82.62 1463.5)"><tspan x="0" y="0">Tienen que haber algo más. Pero no estuvo bien que</tspan></text>
  <text class="cls-1" transform="translate(82.62 1475.5)"><tspan x="0" y="0">lo hiciera de esa manera, con los hijos se habla, no</tspan></text>
  <text class="cls-1" transform="translate(82.62 1487.49)"><tspan x="0" y="0">puede cortarle el afecto eso no les hace bien en su</tspan></text>
  <text class="cls-1" transform="translate(82.62 1499.49)"><tspan x="0" y="0">autoestima, porque piensan que ellos tienen algo mal</tspan></text>
  <text class="cls-1" transform="translate(82.62 1511.49)"><tspan x="0" y="0">y por eso no reciben ese afecto.</tspan></text>
  <path class="cls-4" d="m82.62,1524.25h222c.83,0,1.5.67,1.5,1.5v64.5c0,.83-.67,1.5-1.5,1.5H82.62c-4.14,0-7.5-3.36-7.5-7.5v-52.5c0-4.14,3.36-7.5,7.5-7.5"/>
  <text class="cls-1" transform="translate(82.62 1537)"><tspan x="0" y="0">a mis hijas desde pequeñas siempre les dije solo</tspan></text>
  <text class="cls-1" transform="translate(82.62 1549)"><tspan x="0" y="0">Mami y Papi, pueden tocar o bañarlas, siempre</tspan></text>
  <text class="cls-1" transform="translate(82.62 1560.99)"><tspan x="0" y="0">durmieron conmigo y hasta ahora que son adultas,</tspan></text>
  <text class="cls-1" transform="translate(82.62 1572.99)"><tspan x="0" y="0">porque donde más confianza tienen que tener es</tspan></text>
  <text class="cls-1" transform="translate(82.62 1584.99)"><tspan x="0" y="0">donde su familia.</tspan></text>
  <path class="cls-3" d="m43.62,1597.75h216c4.14,0,7.5,3.36,7.5,7.5v16.5c0,4.14-3.36,7.5-7.5,7.5H37.62c-.83,0-1.5-.67-1.5-1.5v-22.5c0-4.14,3.36-7.5,7.5-7.5"/>
  <text class="cls-2" transform="translate(43.62 1610.5)"><tspan x="0" y="0">Me di cuenta muy tarde que eso estuvo mal, porque</tspan></text>
  <text class="cls-2" transform="translate(43.62 1622.5)"><tspan x="0" y="0">ya no se puede hacer nada.</tspan></text>
  <path class="cls-4" d="m82.62,1635.25h216c4.14,0,7.5,3.36,7.5,7.5v34.5c0,.83-.67,1.5-1.5,1.5H82.62c-4.14,0-7.5-3.36-7.5-7.5v-28.5c0-4.14,3.36-7.5,7.5-7.5"/>
  <text class="cls-1" transform="translate(82.62 1648)"><tspan x="0" y="0">Todo dependerá de cómo lo manejen. Me dice Sara</tspan></text>
  <text class="cls-1" transform="translate(82.62 1660)"><tspan x="0" y="0">que traiga a su hija para hablar con ella a ver si ella</tspan></text>
  <text class="cls-1" transform="translate(82.62 1671.99)"><tspan x="0" y="0">está dispuesta a ayudar.</tspan></text>
  <path class="cls-4" d="m82.62,1684.75h222c.83,0,1.5.67,1.5,1.5v76.5c0,.83-.67,1.5-1.5,1.5H82.62c-4.14,0-7.5-3.36-7.5-7.5v-64.5c0-4.14,3.36-7.5,7.5-7.5"/>
  <text class="cls-1" transform="translate(82.62 1697.5)"><tspan x="0" y="0">Si alguien hablo con ella para mantener una distancia</tspan></text>
  <text class="cls-1" transform="translate(82.62 1709.5)"><tspan x="0" y="0">con usted o escucho eso en algún lado, usted debe</tspan></text>
  <text class="cls-1" transform="translate(82.62 1721.49)"><tspan x="0" y="0">saber que la sociedad siempre lo quitará del medio</tspan></text>
  <text class="cls-1" transform="translate(82.62 1733.49)"><tspan x="0" y="0">para dejar a su hija desprotegida y poder comérsela.</tspan></text>
  <text class="cls-1" transform="translate(82.62 1745.49)"><tspan x="0" y="0">En estos tiempos el Malo es el Padre y los buenos</tspan></text>
  <text class="cls-1" transform="translate(82.62 1757.48)"><tspan x="0" y="0">son los demás.</tspan></text>
  <path class="cls-4" d="m82.62,1770.25h222c.83,0,1.5.67,1.5,1.5v280.5c0,.83-.67,1.5-1.5,1.5H82.62c-4.14,0-7.5-3.36-7.5-7.5v-268.5c0-4.14,3.36-7.5,7.5-7.5"/>
  <text class="cls-1" transform="translate(82.62 1783)"><tspan x="0" y="0">Me dice Sara que hace como 5 años ella tuvo una</tspan></text>
  <text class="cls-1" transform="translate(82.62 1795)"><tspan x="0" y="0">paciente que denuncio a su padre por violación y ella</tspan></text>
  <text class="cls-1" transform="translate(82.62 1806.99)"><tspan x="0" y="0">estaba mu convencida de que él tenía que ir preso.</tspan></text>
  <text class="cls-1" transform="translate(82.62 1818.99)"><tspan x="0" y="0">Sara le dijo que desde cuando estaba pasando esa</tspan></text>
  <text class="cls-1" transform="translate(82.62 1830.99)"><tspan x="0" y="0">situación y le dijo que desde que ella tenía uso de</tspan></text>
  <text class="cls-1" transform="translate(82.62 1842.98)"><tspan x="0" y="0">razón, mi hija le pregunto qué porque ahora decidió</tspan></text>
  <text class="cls-1" transform="translate(82.62 1854.98)"><tspan x="0" y="0">denunciarlo le dijo que por que su novio le dijo que</tspan></text>
  <text class="cls-1" transform="translate(82.62 1866.98)"><tspan x="0" y="0">eso que hacia su papa estaba mal y que tenía que</tspan></text>
  <text class="cls-1" transform="translate(82.62 1878.98)"><tspan x="0" y="0">denunciarlo. El asunto es que se denunció por</tspan></text>
  <text class="cls-1" transform="translate(82.62 1890.97)"><tspan x="0" y="0">encima de todo el mundo, llego un momento en que</tspan></text>
  <text class="cls-1" transform="translate(82.62 1902.97)"><tspan x="0" y="0">Sara hablo con el papa y se dio cuenta de que la</tspan></text>
  <text class="cls-1" transform="translate(82.62 1914.97)"><tspan x="0" y="0">muchacha cometía un error al denunciar a su padre</tspan></text>
  <text class="cls-1" transform="translate(82.62 1926.96)"><tspan x="0" y="0">porque él no había hecho nada malo, pero la jueza</tspan></text>
  <text class="cls-1" transform="translate(82.62 1938.96)"><tspan x="0" y="0">entendió que debía darle 20 años preso. Ahora</tspan></text>
  <text class="cls-1" transform="translate(82.62 1950.96)"><tspan x="0" y="0">después de 5 años del hombre estar preso la</tspan></text>
  <text class="cls-1" transform="translate(82.62 1962.95)"><tspan x="0" y="0">muchacha se arrepintió y se dio cuenta de que el</tspan></text>
  <text class="cls-1" transform="translate(82.62 1974.95)"><tspan x="0" y="0">novio le dijo todas esas cosas para quitar al papa del</tspan></text>
  <text class="cls-1" transform="translate(82.62 1986.95)"><tspan x="0" y="0">medio y que ella se fuera con él. Resulta que quien,</tspan></text>
  <text class="cls-1" transform="translate(82.62 1998.95)"><tspan x="0" y="0">si abuso y la maltrato después fue el novio y la mama</tspan></text>
  <text class="cls-1" transform="translate(82.62 2010.94)"><tspan x="0" y="0">del novio, pero como paso la situación con el papa de</tspan></text>
  <text class="cls-1" transform="translate(82.62 2022.94)"><tspan x="0" y="0">ella nunca le puso una denuncia al novio y a su</tspan></text>
  <text class="cls-1" transform="translate(82.62 2034.94)"><tspan x="0" y="0">mama, por vergüenza. La vida de esa familia paso de</tspan></text>
  <text class="cls-1" transform="translate(82.62 2046.93)"><tspan x="0" y="0">estar estable a estar destruida.</tspan></text>
  <path class="cls-3" d="m43.62,2059.75h216c4.14,0,7.5,3.36,7.5,7.5v76.5c0,4.14-3.36,7.5-7.5,7.5H37.62c-.83,0-1.5-.67-1.5-1.5v-82.5c0-4.14,3.36-7.5,7.5-7.5"/>
  <text class="cls-2" transform="translate(43.62 2072.5)"><tspan x="0" y="0">Yo sé que ser un hombre y más un padre de familia</tspan></text>
  <text class="cls-2" transform="translate(43.62 2084.5)"><tspan x="0" y="0">está muy mal visto y no dudo que algo de esas cosas</tspan></text>
  <text class="cls-2" transform="translate(43.62 2096.49)"><tspan x="0" y="0">ella tenga en su cabeza, porque ella me aparte de</tspan></text>
  <text class="cls-2" transform="translate(43.62 2108.49)"><tspan x="0" y="0">una forma extraña. La vez que dijeron del examen</tspan></text>
  <text class="cls-2" transform="translate(43.62 2120.49)"><tspan x="0" y="0">físico tampoco quiso, si yo estoy en su cama es muy</tspan></text>
  <text class="cls-2" transform="translate(43.62 2132.48)"><tspan x="0" y="0">raro que ella también se acueste. Algunas veces me</tspan></text>
  <text class="cls-2" transform="translate(43.62 2144.48)"><tspan x="0" y="0">siento como si estuviera haciendo algo malo.</tspan></text>
  <path class="cls-3" d="m37.62,2157.25h222c4.14,0,7.5,3.36,7.5,7.5v16.5c0,4.14-3.36,7.5-7.5,7.5H37.62c-.83,0-1.5-.67-1.5-1.5v-28.5c0-.83.67-1.5,1.5-1.5"/>
  <text class="cls-2" transform="translate(43.62 2170)"><tspan x="0" y="0">Prefiero no molestarla y que ella viva su vida como</tspan></text>
  <text class="cls-2" transform="translate(43.62 2182)"><tspan x="0" y="0">ella crea mejor, no voy a molestar a mis hijos.</tspan></text>
  <path class="cls-3" d="m37.62,2194.75h222c4.14,0,7.5,3.36,7.5,7.5v16.5c0,4.14-3.36,7.5-7.5,7.5H37.62c-.83,0-1.5-.67-1.5-1.5v-28.5c0-.83.67-1.5,1.5-1.5"/>
  <text class="cls-2" transform="translate(43.62 2207.5)"><tspan x="0" y="0">Nunca les enseñe nada porque de alguna forma me</tspan></text>
  <text class="cls-2" transform="translate(43.62 2219.5)"><tspan x="0" y="0">da un poco de vergüenza no sé por qué.</tspan></text>
  <path class="cls-4" d="m82.62,2232.25h216c4.14,0,7.5,3.36,7.5,7.5v34.5c0,.83-.67,1.5-1.5,1.5H82.62c-4.14,0-7.5-3.36-7.5-7.5v-28.5c0-4.14,3.36-7.5,7.5-7.5"/>
  <text class="cls-1" transform="translate(82.62 2245)"><tspan x="0" y="0">Y usted prefiere que aprendan mejor en la calle. Se lo</tspan></text>
  <text class="cls-1" transform="translate(82.62 2257)"><tspan x="0" y="0">aseguro nadie querrá a sus hijos como usted, a quien</tspan></text>
  <text class="cls-1" transform="translate(82.62 2268.99)"><tspan x="0" y="0">tienen que confiar es a usted no a la gente de la calle.</tspan></text>
  <path class="cls-4" d="m82.62,2281.75h222c.83,0,1.5.67,1.5,1.5v64.5c0,.83-.67,1.5-1.5,1.5H82.62c-4.14,0-7.5-3.36-7.5-7.5v-52.5c0-4.14,3.36-7.5,7.5-7.5"/>
  <text class="cls-1" transform="translate(82.62 2294.5)"><tspan x="0" y="0">De un primer paso y enséñele esto a su hija, usted</tspan></text>
  <text class="cls-1" transform="translate(82.62 2306.5)"><tspan x="0" y="0">tiene un mes para prepararse. Dígale que todos los</tspan></text>
  <text class="cls-1" transform="translate(82.62 2318.49)"><tspan x="0" y="0">días escriba como se siente y si está dispuesta a</tspan></text>
  <text class="cls-1" transform="translate(82.62 2330.49)"><tspan x="0" y="0">hacer lo quesea por su familia, o si prefiere que todo</tspan></text>
  <text class="cls-1" transform="translate(82.62 2342.49)"><tspan x="0" y="0">termine así de esa forma.</tspan></text>
  <path class="cls-3" d="m43.62,2355.25h216c4.14,0,7.5,3.36,7.5,7.5v40.5c0,4.14-3.36,7.5-7.5,7.5H37.62c-.83,0-1.5-.67-1.5-1.5v-46.5c0-4.14,3.36-7.5,7.5-7.5"/>
  <text class="cls-2" transform="translate(43.62 2368)"><tspan x="0" y="0">No quiero ponerla a tomar una decisión tan difícil,</tspan></text>
  <text class="cls-2" transform="translate(43.62 2380)"><tspan x="0" y="0">solo quiero que sea feliz y cualquier cosa que pase</tspan></text>
  <text class="cls-2" transform="translate(43.62 2391.99)"><tspan x="0" y="0">confiar que ellos van a salir adelante, aunque yo no</tspan></text>
  <text class="cls-2" transform="translate(43.62 2403.99)"><tspan x="0" y="0">este.</tspan></text>
  <path class="cls-4" d="m82.62,2416.75h216c4.14,0,7.5,3.36,7.5,7.5v106.5c0,.83-.67,1.5-1.5,1.5H82.62c-4.14,0-7.5-3.36-7.5-7.5v-100.5c0-4.14,3.36-7.5,7.5-7.5"/>
  <text class="cls-1" transform="translate(82.62 2429.5)"><tspan x="0" y="0">Sara me dice también que hable con su hija y si ella</tspan></text>
  <text class="cls-1" transform="translate(82.62 2441.5)"><tspan x="0" y="0">dice que no por lo menos lo intento. Es verdad lo que</tspan></text>
  <text class="cls-1" transform="translate(82.62 2453.49)"><tspan x="0" y="0">me dice mi hija Sara, su hija no paso por una etapa</tspan></text>
  <text class="cls-1" transform="translate(82.62 2465.49)"><tspan x="0" y="0">que es muy importante para las mujeres, que dura</tspan></text>
  <text class="cls-1" transform="translate(82.62 2477.49)"><tspan x="0" y="0">unos años hasta la adolescencia y es cuando ven a</tspan></text>
  <text class="cls-1" transform="translate(82.62 2489.48)"><tspan x="0" y="0">su papa como el hombre de su vida incluso se ponen</tspan></text>
  <text class="cls-1" transform="translate(82.62 2501.48)"><tspan x="0" y="0">celosas de su mama. Pero como uno sabe que ella</tspan></text>
  <text class="cls-1" transform="translate(82.62 2513.48)"><tspan x="0" y="0">no paso por eso por la reacción de querer</tspan></text>
  <text class="cls-1" transform="translate(82.62 2525.48)"><tspan x="0" y="0">mantenerse alejada en lugar de buscarlo.</tspan></text>
  <path class="cls-3" d="m43.62,2538.25h161.25c4.14,0,7.5,3.36,7.5,7.5v4.5c0,4.14-3.36,7.5-7.5,7.5H37.62c-.83,0-1.5-.67-1.5-1.5v-10.5c0-4.14,3.36-7.5,7.5-7.5"/>
  <text class="cls-2" transform="translate(43.62 2551)"><tspan x="0" y="0">Le diré, pero no la forzaré a hacer nada.</tspan></text>
  <path class="cls-4" d="m138.88,2563.75h159.75c4.14,0,7.5,3.36,7.5,7.5v10.5c0,.83-.67,1.5-1.5,1.5h-165.75c-4.14,0-7.5-3.36-7.5-7.5v-4.5c0-4.14,3.36-7.5,7.5-7.5"/>
  <text class="cls-1" transform="translate(138.88 2576.5)"><tspan x="0" y="0">Inténtelo y nos deja saber cómo les fue.</tspan></text>
  <path class="cls-3" d="m43.62,2589.25h103.5c4.14,0,7.5,3.36,7.5,7.5v4.5c0,4.14-3.36,7.5-7.5,7.5H37.62c-.83,0-1.5-.67-1.5-1.5v-10.5c0-4.14,3.36-7.5,7.5-7.5"/>
  <text class="cls-2" transform="translate(43.62 2602)"><tspan x="0" y="0">Muchas Gracias por todo.</tspan></text>
  <path class="cls-4" d="m82.62,2614.75h216c4.14,0,7.5,3.36,7.5,7.5v70.5c0,.83-.67,1.5-1.5,1.5H82.62c-4.14,0-7.5-3.36-7.5-7.5v-64.5c0-4.14,3.36-7.5,7.5-7.5"/>
  <text class="cls-1" transform="translate(82.62 2627.5)"><tspan x="0" y="0">Estamos para servirle y para nosotros seria de mucho</tspan></text>
  <text class="cls-1" transform="translate(82.62 2639.5)"><tspan x="0" y="0">agrado saber que esta historia tenga un final feliz.</tspan></text>
  <text class="cls-1" transform="translate(82.62 2651.49)"><tspan x="0" y="0">Dígale a su hija que me envíe escritos, si puede</tspan></text>
  <text class="cls-1" transform="translate(82.62 2663.49)"><tspan x="0" y="0">diario o cada dos días de como ella está sintiendo las</tspan></text>
  <text class="cls-1" transform="translate(82.62 2675.49)"><tspan x="0" y="0">cosas que sea sincera. Porque yo puedo usar eso en</tspan></text>
  <text class="cls-1" transform="translate(82.62 2687.49)"><tspan x="0" y="0">su defensa.</tspan></text>
  <path class="cls-4" d="m82.62,2700.25h222c.83,0,1.5.67,1.5,1.5v28.5c0,.83-.67,1.5-1.5,1.5H82.62c-4.14,0-7.5-3.36-7.5-7.5v-16.5c0-4.14,3.36-7.5,7.5-7.5"/>
  <text class="cls-1" transform="translate(82.62 2713)"><tspan x="0" y="0">Se que hay personas que le tienen aprecio y lo</tspan></text>
  <text class="cls-1" transform="translate(82.62 2725)"><tspan x="0" y="0">quieren ayudar.</tspan></text>
  <path class="cls-3" d="m43.62,2737.75h65.25c4.14,0,7.5,3.36,7.5,7.5v4.5c0,4.14-3.36,7.5-7.5,7.5H37.62c-.83,0-1.5-.67-1.5-1.5v-10.5c0-4.14,3.36-7.5,7.5-7.5"/>
  <text class="cls-2" transform="translate(43.62 2750.5)"><tspan x="0" y="0">Muchas Gracias</tspan></text>
  <path class="cls-4" d="m134.38,2763.25h164.25c4.14,0,7.5,3.36,7.5,7.5v10.5c0,.83-.67,1.5-1.5,1.5h-170.25c-4.14,0-7.5-3.36-7.5-7.5v-4.5c0-4.14,3.36-7.5,7.5-7.5"/>
  <text class="cls-1" transform="translate(134.38 2776)"><tspan x="0" y="0">Siempre para servirle, que tenga feliz día</tspan></text>
  <path class="cls-3" d="m43.62,2788.75h20.25c4.14,0,7.5,3.36,7.5,7.5v4.5c0,4.14-3.36,7.5-7.5,7.5h-26.25c-.83,0-1.5-.67-1.5-1.5v-10.5c0-4.14,3.36-7.5,7.5-7.5"/>
  <text class="cls-2" transform="translate(43.62 2801.5)"><tspan x="0" y="0">Igual</tspan></text>
</svg>